<svg id="Capa_1" enable-background="new 0 0 512 512" height="512" viewBox="0 0 512 512" width="512" xmlns="http://www.w3.org/2000/svg"><g><g><path d="m256 106.9c-109.618 0-204.021 59.653-246.733 145.472-1.135 2.28-1.135 4.975 0 7.256 42.712 85.819 137.116 145.472 246.733 145.472s204.021-59.653 246.733-145.472c1.135-2.28 1.135-4.975 0-7.256-42.712-85.819-137.115-145.472-246.733-145.472z" fill="#f9f5f3"/><path d="m502.733 252.372c-42.712-85.819-137.116-145.472-246.733-145.472-3.991 0-7.959.089-11.907.245 104.513 4.143 193.669 62.533 234.825 145.227 1.135 2.28 1.135 4.975 0 7.256-41.157 82.694-130.313 141.084-234.825 145.227 3.949.157 7.917.245 11.907.245 109.617 0 204.021-59.653 246.733-145.472 1.135-2.281 1.135-4.976 0-7.256z" fill="#f9eae0"/><circle cx="256" cy="256" fill="#a0c8ff" r="115.967"/><path d="m256 140.033c-4.02 0-7.993.205-11.907.604 58.453 5.963 104.059 55.337 104.059 115.363s-45.607 109.4-104.059 115.362c3.915.399 7.887.604 11.907.604 64.047 0 115.967-51.92 115.967-115.967s-51.92-115.966-115.967-115.966z" fill="#91b2fa"/><circle cx="256" cy="256" fill="#868eaf" r="49.7"/><path d="m256 206.3c-4.106 0-8.091.508-11.907 1.446 21.696 5.336 37.793 24.911 37.793 48.254s-16.097 42.917-37.793 48.254c3.816.939 7.802 1.446 11.907 1.446 27.449 0 49.7-22.251 49.7-49.7s-22.251-49.7-49.7-49.7z" fill="#7d83ad"/><ellipse cx="289.133" cy="222.867" fill="#f9f5f3" rx="16.567" ry="16.567" transform="matrix(.707 -.707 .707 .707 -72.905 269.724)"/></g><g><g><g><path d="m256 412.6c-110.659 0-210.858-60.202-255.271-153.372-.973-2.042-.973-4.413 0-6.455 44.413-93.17 144.612-153.373 255.271-153.373s210.858 60.202 255.271 153.372c.973 2.042.973 4.413 0 6.455-22.438 47.071-59.353 86.489-106.755 113.994-3.584 2.078-8.172.859-10.251-2.724-2.078-3.582-.859-8.172 2.724-10.251 43.685-25.348 77.907-61.339 99.173-104.247-42.7-86.141-136.541-141.599-240.162-141.599s-197.462 55.458-240.161 141.6c42.699 86.142 136.54 141.6 240.161 141.6 39.46 0 77.402-7.778 112.773-23.118 3.8-1.649 8.217.097 9.865 3.897 1.648 3.801-.097 8.217-3.897 9.865-37.264 16.161-77.216 24.356-118.741 24.356z"/></g><g><path d="m256 379.467c-68.08 0-123.467-55.387-123.467-123.467 0-24.606 7.22-48.37 20.88-68.725 2.309-3.439 6.969-4.355 10.407-2.048 3.439 2.309 4.356 6.968 2.048 10.407-11.995 17.873-18.335 38.747-18.335 60.365 0 59.809 48.658 108.467 108.467 108.467s108.467-48.657 108.467-108.466-48.658-108.467-108.467-108.467c-26.561 0-52.116 9.698-71.961 27.307-3.098 2.751-7.839 2.468-10.587-.632-2.75-3.098-2.467-7.838.632-10.587 22.591-20.048 51.683-31.088 81.916-31.088 68.08 0 123.467 55.387 123.467 123.467s-55.387 123.467-123.467 123.467z"/></g><g><path d="m256 313.2c-31.54 0-57.2-25.66-57.2-57.2s25.66-57.2 57.2-57.2c8.631 0 16.929 1.877 24.665 5.578 3.736 1.788 5.316 6.267 3.528 10.003-1.789 3.735-6.268 5.314-10.003 3.528-5.698-2.727-11.818-4.109-18.19-4.109-23.27 0-42.2 18.931-42.2 42.2s18.931 42.2 42.2 42.2 42.2-18.931 42.2-42.2c0-6.372-1.382-12.491-4.108-18.188-1.788-3.736-.208-8.215 3.528-10.003 3.734-1.784 8.214-.209 10.003 3.528 3.7 7.733 5.577 16.031 5.577 24.662 0 31.541-25.66 57.201-57.2 57.201z"/></g><g><path d="m289.133 246.934c-13.27 0-24.066-10.796-24.066-24.066s10.796-24.067 24.066-24.067c13.271 0 24.067 10.797 24.067 24.067s-10.797 24.066-24.067 24.066zm0-33.134c-4.999 0-9.066 4.067-9.066 9.067 0 4.999 4.067 9.066 9.066 9.066 5 0 9.067-4.067 9.067-9.066 0-5-4.067-9.067-9.067-9.067z"/></g></g></g></g></svg>